<?xml version="1.0" encoding="UTF-8"?>
<svg id="Livello_2" data-name="Livello 2" xmlns="http://www.w3.org/2000/svg" viewBox="0 0 300.75 351.74">
  <defs>
    <style>
      .cls-1 {
        fill: #fff;
      }
    </style>
  </defs>
  <g id="Livello_1-2" data-name="Livello 1">
    <g>
      <path class="cls-1" d="m98.54,176.04c-9.52,7.42-15.24,17.81-14.6,30.95.24,4.92,1.96,9.75,2.82,14.65,1.47,8.36,2.78,16.74,4.16,25.11-.59.27-1.18.53-1.77.8-1.6-1-3.21-1.98-4.8-3.01-29.74-19.23-46.19-46.69-50.92-81.61-3.58-26.41-5.91-52.84-3.54-79.5.46-5.12,1.14-10.22,2.84-15.5.68,1.47,1.39,2.93,2.02,4.42,6.05,14.14,12.78,28.04,17.76,42.55,1.9,5.53-.14,12.45-.57,18.72-1.01,14.94-2.17,29.86-3.18,44.8-.15,2.25.21,4.54,1.52,6.84,2.68-20.18,5.36-40.36,8.16-61.47,13.92,18.14,26.92,35.08,40.09,52.25Z"/>
      <path class="cls-1" d="m66.12,118.54c24.12,2.22,44.05,12.48,59.2,30.72,7.83,9.42,13.62,20.59,19.87,31.23,1.82,3.1,3.48,4.58,7.15,4.99,22.75,2.57,43.57,9.97,60.98,25.44.6.53,1.21,1.47,1.83,1.48,3.07.04,6.14-.16,9.21-.28-.2-2.29-.4-4.58-.61-7.03,5.93-1.72,12.28,1,17.98,8.46-4.52,4.65-9.45,8.92-16.44,7.8-20.69-3.32-41.44-6.41-61.91-10.81-15.68-3.38-29.22-11.57-40.77-22.97-18.53-18.28-37.09-36.51-51.3-58.56-1.73-2.68-3.22-5.53-4.76-8.33-.26-.48-.23-1.12-.42-2.15Z"/>
      <path class="cls-1" d="m114.26,93.58c-3.12-2.17-5.53-3.85-7.98-5.56-.3.59-.68,1.12-.6,1.2,5.68,5.82,4.75,12.85,4.17,20.06-.53,6.53-.11,13.13-.11,21.21-15.28-9.57-23.31-23.19-30.81-37.26-.55.25-1.11.5-1.66.75,2.11,7.06,4.23,14.12,6.37,21.27-6.81-.9-13.57-1.79-21.99-2.9,1.51-11.31,2.35-22.84,4.76-34.02,1.78-8.29,4.96-16.45,8.68-24.1,3.92-8.06,11-12.68,20.35-12.45,9.67.25,16,5.94,20.13,14.02,6.36,12.44,3.91,24.81-1.3,37.77Z"/>
      <path class="cls-1" d="m122.31,52.98c-17.71-21.72-24.21-23.47-43.61-12.15-4.67-7.21-9.36-14.45-14.08-21.73C89.3.57,127.43.7,150.8,29.03c-9.49,7.98-18.98,15.96-28.49,23.95Z"/>
      <path class="cls-1" d="m69.19,44.51c-5.82-2.84-11.7-5.02-16.74-8.44-3.1-2.11-4.85-6.18-7.32-9.28-1.52-1.91-3.04-3.94-4.98-5.32-.66-.47-3.71.78-3.79,1.46-.26,2.19-.43,5.19.8,6.61,2.93,3.37,6.26,6.96,10.21,8.79,13.09,6.06,18.67,15.96,15.8,29.88-2.48,12.03-4.98,24.06-7.37,35.63.1.14-.89-.73-1.34-1.82-7.19-17.75-14.72-35.37-21.31-53.34C26.67,31.05,16.96,15.79,3.2,3.06,2.24,2.17,1.28,1.27,0,.07c25.45-1.55,61.86,21.98,69.19,44.44Z"/>
      <path class="cls-1" d="m221.19,22.94c24.73,49.11,30.41,100.25,17.54,154.22,0-14.02.34-27.3-.14-40.55-.26-7.14-1.51-14.32-3.1-21.3-1.17-5.15-2.95-5.68-9-4.53,5.88-29.9-1.25-58.78-5.3-87.85Z"/>
      <path class="cls-1" d="m152.08,290.69c1.34,5.67,4.62,4.85,7.55,2.71,5.47-4,11.09-7.96,15.83-12.74,11.55-11.63,22.63-23.73,34.2-35.3-28.87,46.48-66.56,83.34-116.96,106.38,21.3-18.53,42.62-37.03,59.38-61.04Z"/>
      <path class="cls-1" d="m175.05,148.43c12.59,9.42,25.19,18.83,37.76,28.27,16.45,12.36,33.14,24.41,49.17,37.3,5.59,4.5,9.5,11.09,14.18,16.72-.34.46-.69.93-1.03,1.39-6.39-4.18-13.29-7.75-19.08-12.64-25.3-21.4-50.28-43.2-75.39-64.83-2.11-1.81-4.31-3.51-6.48-5.26l.86-.95Z"/>
      <path class="cls-1" d="m254.29,228.6c9.68,3.3,19.37,6.6,30.19,10.29-4.46-9.24-8.37-17.36-12.28-25.47.28-.16.57-.33.85-.49,8.86,12.21,17.72,24.41,27.7,38.17-16.7-7.56-31.79-14.39-46.89-21.22l.43-1.28Z"/>
    </g>
  </g>
</svg>